<svg width="18" height="19" viewBox="0 0 18 19" fill="none" xmlns="http://www.w3.org/2000/svg">
<path d="M16.9426 9.36001C16.9282 9.36059 16.915 9.36406 16.9025 9.3687C16.974 9.36348 17.0448 9.35769 17.1169 9.35248L16.9426 9.36001Z" fill="#606060"/>
<path d="M15.8137 8.65348C15.831 8.59436 15.6091 8.46254 15.4906 8.51647C15.1221 8.68344 13.8298 8.74816 12.3463 8.76533L11.8939 9.10528C12.8134 9.10328 15.6878 9.07931 15.8132 8.65348H15.8137Z" fill="black"/>
<path d="M4.40434 8.56717C4.16863 8.56237 3.97097 8.50924 3.92859 8.55558C3.76597 8.73294 4.13576 8.78887 4.666 8.84559C6.45049 9.03654 8.28341 9.03654 10.0921 9.06889L10.4948 8.7665C9.66741 8.76011 8.87204 8.74613 8.22719 8.73374C6.87736 8.70658 5.75719 8.59393 4.4052 8.56677L4.40434 8.56717Z" fill="black"/>
<path d="M15.4171 7.99032C14.8972 7.87128 14.338 7.77821 13.7567 7.70551L13.3303 8.02587C14.155 8.09738 14.9781 8.21242 15.7259 8.42774C16.1173 8.54038 16.6376 8.6794 16.6765 9.1248C16.7024 9.4188 16.6843 10.201 16.635 10.487C16.5156 11.1828 15.5464 11.3087 14.9348 11.4309C14.6312 11.4916 14.2575 11.534 13.8627 11.5671L13.7658 9.63811V9.63731C14.3682 9.569 14.9404 9.48472 15.35 9.38365C15.5425 9.33612 15.9685 9.28578 16.1289 9.21947C16.3482 9.12879 16.2989 8.87274 16.0745 8.87274C15.8785 8.87274 15.3812 9.00816 15.145 9.06408C14.7264 9.16355 14.2346 9.23665 13.7299 9.29337C13.6862 9.20629 13.5828 9.14757 13.4656 9.15236L12.6754 9.18632C12.6045 9.18951 12.5383 9.21508 12.4895 9.25902C12.4436 9.29976 12.4164 9.35369 12.4129 9.40962C12.1807 9.42599 11.9575 9.44077 11.7503 9.45396C11.708 9.42879 11.6266 9.40522 11.5224 9.38325L11.1319 9.67686C11.2231 9.68565 11.3126 9.69563 11.3987 9.70762L11.4039 9.74197L11.4156 10.6815L9.80972 10.6703L9.48707 10.9128L11.419 10.9531L11.4303 11.8531C10.5735 11.9222 9.29029 12.0712 8.51265 12.0892C8.43351 12.0629 8.37988 11.9342 8.34355 11.7724L7.71686 12.2434C7.72205 12.2518 7.72681 12.2602 7.732 12.2678C8.03691 12.702 9.15405 12.5526 9.64364 12.4739C10.1674 12.3896 11.3239 12.2334 11.8844 12.1096C11.9873 12.0976 12.0488 12.0605 12.0842 12.0077C12.2291 11.9969 12.3839 11.9886 12.5448 11.9806C12.5643 12.0601 12.63 12.126 12.7217 12.1531C12.8113 12.1799 12.9086 12.1891 13.0089 12.1891C13.1257 12.1891 13.2472 12.1767 13.3661 12.1643C13.4552 12.1551 13.5391 12.1463 13.6166 12.1435C13.6767 12.1411 13.7355 12.1216 13.7822 12.0876C13.8415 12.0445 13.8765 11.981 13.8795 11.9151C13.8795 11.9151 13.8795 11.9151 13.8795 11.9147C14.2229 11.8911 14.5512 11.8583 14.8302 11.8056C15.6359 11.6538 16.5679 11.5432 16.9451 10.7722L17 8.8268C16.7306 8.28553 15.9962 8.12175 15.4166 7.98912L15.4171 7.99032ZM11.884 11.7009C11.7763 11.2643 11.7049 10.3807 11.8321 9.80948C12.0176 9.7967 12.2196 9.78192 12.4302 9.76474L12.5254 11.6558C12.2949 11.6698 12.0773 11.6842 11.8844 11.7005L11.884 11.7009ZM13.6503 11.9298C13.6499 11.9298 13.6494 11.9306 13.649 11.931C13.6378 11.939 13.6235 11.9438 13.6088 11.9442C13.5236 11.9474 13.4319 11.957 13.3428 11.9662C13.1534 11.9858 12.9587 12.0053 12.8113 11.969C12.8113 11.969 12.8108 11.969 12.8104 11.969C12.803 11.9674 12.7957 11.9658 12.7888 11.9638C12.7697 11.9582 12.7563 11.9458 12.7555 11.9334L12.7408 11.643L12.6456 9.74716L12.6296 9.424C12.6292 9.41481 12.6352 9.40722 12.6408 9.40283C12.646 9.39843 12.6525 9.39484 12.6594 9.39204C12.6599 9.39204 12.6607 9.39204 12.6612 9.39164C12.669 9.38844 12.6776 9.38645 12.6871 9.38605L12.7957 9.38125H12.8074L13.4773 9.35209C13.4786 9.35209 13.4799 9.35209 13.4812 9.35209C13.5132 9.35209 13.5374 9.36927 13.5383 9.38525L13.5521 9.66128L13.6486 11.5843L13.6646 11.9063C13.6646 11.9139 13.6598 11.9222 13.6507 11.9294L13.6503 11.9298Z" fill="black"/>
<path d="M7.84528 10.7575L7.97676 10.6585L7.85609 10.6577L7.84528 10.7575Z" fill="black"/>
<path d="M6.26368 11.9459L6.67368 11.6379C5.77452 11.5588 4.79751 11.4601 3.89013 11.2828C3.52899 11.2121 3.17867 11.1294 2.84954 11.0299C2.66443 10.974 2.0239 10.8529 1.9015 10.7834C1.8643 10.7623 1.84527 10.7399 1.83446 10.7008L1.41191 9.48518L1.45905 9.41048L2.20079 8.86202C2.69816 9.01262 3.27728 9.13525 3.88969 9.23672C5.14783 9.44564 6.54696 9.56668 7.66757 9.66295C7.47813 10.1299 7.41239 10.7782 7.42018 11.0766L7.6866 10.8765C7.66713 10.8486 7.65156 10.8146 7.64118 10.7723C7.6347 10.678 7.6693 10.6312 7.71341 10.5985C7.86392 10.4878 7.96426 10.5162 8.12861 10.5446L8.30593 10.4111C8.34788 10.1155 8.45644 9.59783 8.63852 9.55349C8.87207 9.57786 9.12379 9.59184 9.38329 9.60143L9.92348 9.19557C9.35042 9.12886 8.47071 9.01182 8.08276 9.15203C7.99886 9.18239 7.92447 9.24231 7.85873 9.3226C7.19138 9.26628 5.8701 9.19877 5.28623 9.12367C4.86108 9.06894 4.34987 9.00423 3.88926 8.91835C3.7288 8.88839 3.57397 8.85603 3.43168 8.82048C3.40184 8.81289 3.36594 8.83686 3.38627 8.77734C3.44379 8.60956 3.64533 8.48253 3.88926 8.38626C4.22747 8.25284 4.64786 8.17854 4.87882 8.13859C6.90594 7.78826 9.30933 7.81143 11.3667 7.9093C11.4558 7.9137 11.5453 7.91769 11.6357 7.92208L11.8031 7.79785L11.8014 7.78467L12.1072 7.55498C10.7175 7.46829 9.30068 7.47069 8.07065 7.50984C7.17063 7.5382 5.02154 7.63727 3.88969 8.00877C3.68339 8.07628 3.51082 8.15297 3.38583 8.24006C3.19683 8.37148 3.10341 8.53486 2.99096 8.72021L2.17268 8.47694L2.07882 8.49052C1.79856 8.71382 1.48846 8.91515 1.21512 9.14484C1.12733 9.21874 0.99455 9.30143 1.00017 9.41608C1.15933 9.89304 1.30206 10.4191 1.49711 10.8817C1.52177 10.94 1.53301 11.0183 1.59572 11.0527C2.34827 11.3039 3.11941 11.4873 3.88883 11.6263C4.68981 11.7713 5.48821 11.8688 6.26238 11.9459H6.26368Z" fill="black"/>
<path d="M16.0667 5L12.6188 7.59052L12.1448 7.94684L11.0493 8.76974L10.6362 9.08012L10.4178 9.2443L9.92132 9.6178L8.53084 10.662L8.23112 10.8873L8.08667 10.9959L7.46992 11.4593L7.17496 11.681L6.75933 11.9934L3.89014 14.1493L4.18078 14.4809L7.41413 12.0513L8.28821 11.3946L8.94344 10.9025L9.25614 10.6672L10.6207 9.64177L11.0601 9.31181L11.3421 9.10009L11.7815 8.76974L12.823 7.98719L13.2715 7.65004L16.3573 5.33155L16.0667 5Z" fill="black"/>
</svg>
