<svg xmlns="http://www.w3.org/2000/svg" width="256" height="256" viewBox="0 0 256 256" role="img" aria-label="Midnight navy, illustrative colour swatch"><title>Midnight navy, illustrative colour swatch</title><rect width="256" height="256" fill="#25374b"/><path d="M-256 256 L0 0" stroke="#ffffff" stroke-opacity="0.09" stroke-width="3"/><path d="M-232 256 L24 0" stroke="#ffffff" stroke-opacity="0.09" stroke-width="3"/><path d="M-208 256 L48 0" stroke="#ffffff" stroke-opacity="0.09" stroke-width="3"/><path d="M-184 256 L72 0" stroke="#ffffff" stroke-opacity="0.09" stroke-width="3"/><path d="M-160 256 L96 0" stroke="#ffffff" stroke-opacity="0.09" stroke-width="3"/><path d="M-136 256 L120 0" stroke="#ffffff" stroke-opacity="0.09" stroke-width="3"/><path d="M-112 256 L144 0" stroke="#ffffff" stroke-opacity="0.09" stroke-width="3"/><path d="M-88 256 L168 0" stroke="#ffffff" stroke-opacity="0.09" stroke-width="3"/><path d="M-64 256 L192 0" stroke="#ffffff" stroke-opacity="0.09" stroke-width="3"/><path d="M-40 256 L216 0" stroke="#ffffff" stroke-opacity="0.09" stroke-width="3"/><path d="M-16 256 L240 0" stroke="#ffffff" stroke-opacity="0.09" stroke-width="3"/><path d="M8 256 L264 0" stroke="#ffffff" stroke-opacity="0.09" stroke-width="3"/><path d="M32 256 L288 0" stroke="#ffffff" stroke-opacity="0.09" stroke-width="3"/><path d="M56 256 L312 0" stroke="#ffffff" stroke-opacity="0.09" stroke-width="3"/><path d="M80 256 L336 0" stroke="#ffffff" stroke-opacity="0.09" stroke-width="3"/><path d="M104 256 L360 0" stroke="#ffffff" stroke-opacity="0.09" stroke-width="3"/><path d="M128 256 L384 0" stroke="#ffffff" stroke-opacity="0.09" stroke-width="3"/><path d="M152 256 L408 0" stroke="#ffffff" stroke-opacity="0.09" stroke-width="3"/><path d="M176 256 L432 0" stroke="#ffffff" stroke-opacity="0.09" stroke-width="3"/><path d="M200 256 L456 0" stroke="#ffffff" stroke-opacity="0.09" stroke-width="3"/><path d="M224 256 L480 0" stroke="#ffffff" stroke-opacity="0.09" stroke-width="3"/><path d="M248 256 L504 0" stroke="#ffffff" stroke-opacity="0.09" stroke-width="3"/><path d="M272 256 L528 0" stroke="#ffffff" stroke-opacity="0.09" stroke-width="3"/><path d="M296 256 L552 0" stroke="#ffffff" stroke-opacity="0.09" stroke-width="3"/></svg>
